<?xml version="1.0" encoding="UTF-8"?>
<svg xmlns="http://www.w3.org/2000/svg"
     width="100%" height="100%" viewBox="0 0 2048 2048"
     role="img" aria-labelledby="title desc">

    <title id="title">Wolf howling at the moon</title>
    <desc id="desc">A wolf silhouette in front of a full moon.</desc>

    <defs>
        <mask id="moon-mask">
            <circle fill="white" cx="1083.8" cy="964.199" r="964.199"/>
        </mask>
    </defs>

    <g mask="url(#moon-mask)">
        <circle cx="1083.8" cy="964.199" r="964.199" fill="#ff9200"/>
        <circle cx="883.005" cy="814.255" r="1041.58" fill="#ffbd00"/>
    </g>

    <path d="M480.633,1803.15C493.098,1759.06 504.299,1714.67 512.751,1669.63C517.318,1645.24 530.074,1629.31 552.865,1618.97C575.936,1608.49 569.984,1590.95 577.093,1566.26C590.831,1518.3 585.449,1470.67 578.971,1422.95C577.144,1409.37 573.69,1396.02 570.976,1382.55C567.398,1429.52 571.367,1475.95 569.215,1523.82C565.785,1517.6 562.986,1512.49 559.135,1505.49C557.685,1538.2 556.982,1569.04 544.87,1601.92L538.382,1569.7C511.355,1614.17 473.352,1641.68 424.057,1659.34C429.544,1648.81 454.912,1583.73 463.596,1574.51C427.014,1579.56 377.054,1653.93 344.421,1659.4C342.085,1659.8 339.598,1660.63 338.182,1658C336.337,1654.54 339.054,1653.42 341.6,1651.93C353.422,1644.93 365.662,1638.47 375.57,1628.39C338.129,1639.8 300.451,1638.64 262.461,1635.45C234.772,1633.16 206.751,1630.64 178.121,1643.4C180.722,1631.72 184.03,1622.25 188.967,1613.15C214.84,1565.44 257.467,1536.18 305.18,1512.34C333.785,1498.04 363.313,1485.58 388.316,1464.92C431.547,1429.27 454.609,1381.39 476.23,1332.66C492.022,1297.03 506.356,1260.82 523.934,1225.86C550.756,1172.65 587.822,1116.62 627.862,1082.36C667.875,1048.07 756.266,1008.81 822.459,990.115C888.652,971.422 884.601,969.357 936.36,950.759C988.12,932.161 1018.4,889.032 1045.3,882.37C1051.19,880.916 1053.67,877.023 1055.24,872.004C1060.26,855.937 1069.43,842.076 1079.5,828.683C1090.36,814.212 1102.83,801.124 1115.38,788.084C1117.09,786.301 1120.33,784.261 1117.35,781.352C1115.52,779.593 1112.92,780.32 1110.69,781.423C1104.55,784.472 1098.75,788.412 1090.42,788.224C1110.17,768.734 1122.86,745.795 1134.31,721.825C1123.87,727.407 1113.43,733.036 1103,738.618C1114.49,717.556 1126.9,697.784 1142.21,679.888C1144.39,677.332 1149.53,674.728 1146.36,670.999C1143.78,667.973 1139.49,670.741 1135.83,671.843C1128.21,674.142 1120.4,676.464 1112.5,677.332C1094.95,679.232 1077.29,679.63 1060.15,674.705C1047.08,670.929 1045.23,664.69 1054.66,656.176C1061.9,649.609 1069.69,643.44 1077.88,638.022C1115.01,613.489 1150.44,587.454 1166.91,544.58C1179.81,511.016 1204.37,489.18 1238,475.553C1245.6,472.481 1254.04,469.244 1258.15,461.082C1275.58,426.486 1292.93,391.844 1310.55,357.343C1314.11,350.33 1318.47,343.2 1326.94,341.089C1337.57,338.462 1342.77,346.648 1346.83,353.52C1352.32,362.808 1358.13,371.791 1365.94,379.132C1385.13,397.215 1387.62,419.122 1382.9,442.811C1380.09,456.79 1375.89,470.651 1376.45,484.911C1376.9,495.536 1374.69,510.125 1385.95,514.699C1398.59,519.835 1410.13,510.289 1419.7,501.634C1430.07,492.206 1440.39,482.754 1450.59,473.161C1456.34,467.766 1459.08,468.188 1461.94,476.14C1469.21,496.287 1469.78,515.355 1456.57,533.626C1451.67,540.405 1447.94,547.934 1442.99,554.665C1415.5,592.122 1423.6,628.195 1447.45,663.517C1461.01,683.524 1479.86,699.426 1496.66,721.238C1488.68,717.392 1483.85,714.835 1478.83,712.701C1473.69,710.52 1468.72,706.345 1462.34,710.098C1493.54,750.603 1524.92,790.499 1551.56,837.854C1537.05,829.457 1525.93,823.031 1513.29,815.713C1524.26,834.265 1534.21,851.035 1544.41,868.298C1533.1,866.891 1526.37,860.065 1515.05,853.498C1535.05,893.91 1551.47,931.953 1551.35,974.5C1541.43,958.785 1531.39,943.704 1513.59,931.461C1525.67,986.016 1524.68,1037.71 1505.57,1091.68C1503.32,1069.18 1496.84,1051.71 1485.8,1035.53C1485.73,1076.39 1492.93,1117.31 1478.41,1159.6C1473.53,1146.89 1472.92,1134.98 1464.43,1125.4C1463,1127.59 1461.73,1128.64 1461.69,1129.77C1460.09,1157 1447.68,1180.08 1433.33,1202.76C1418.83,1225.65 1423.09,1255.79 1402.35,1273.15C1395,1279.34 1388.43,1302.86 1390.05,1295.85C1390.8,1292.54 1370.88,1354.14 1356.33,1423.32C1340.16,1500.21 1329.13,1585.65 1329.13,1585.65C1328.75,1595.9 1328.44,1605.87 1328.58,1615.66C1340.93,1616.65 1353.01,1617.96 1364.69,1619.63C1492.95,1637.95 1472.34,1596.73 1520.44,1708.96C1568.54,1821.19 1481.5,1775.38 1481.5,1857.84C1481.5,1940.3 1531.89,1899.07 1566.25,1951.75C1600.61,2004.43 1557.09,1995.73 1557.09,2031.92C1557.09,2068.11 226.322,2031.92 226.322,2031.92C226.322,2031.92 194.255,2027.34 219.451,2004.43C244.646,1981.53 178.222,2004.43 288.165,1949.46C398.107,1894.49 327.103,1855.55 382.074,1834.93C398.145,1828.91 433.591,1817.16 480.633,1803.15ZM1251.53,1613.28C1251,1602.64 1250.42,1592.01 1249.75,1581.37C1247.58,1547.19 1251.78,1496.13 1256.09,1436.03C1257.1,1427.58 1253.97,1411.85 1253.97,1411.85C1252.31,1431.52 1235.59,1443.66 1235.59,1443.66C1243.17,1402.67 1217.49,1363.55 1217.49,1363.55C1208.31,1380.31 1197.74,1438.21 1197.74,1438.21L1197.98,1438.2C1186.09,1499.95 1175.17,1558.41 1168.3,1617.3C1195.39,1615.06 1223.54,1613.6 1251.53,1613.28ZM1067.04,1629.67C1067.39,1627.41 1067.89,1625.15 1068.54,1622.93C1081.06,1580.28 1080.56,1536.49 1079.42,1492.73C1078.07,1442.63 1074.45,1392.71 1065.97,1343.13C1065.43,1339.94 1061.97,1334.74 1068.55,1332.66C1079.95,1329.12 1072.92,1323.57 1069.24,1319.73C1062.4,1312.56 1054.71,1306.16 1046.81,1298.91C1049.72,1297.91 1051.07,1297.48 1052.4,1297C1056.84,1295.43 1062.88,1294.29 1063.56,1289.62C1064.37,1283.86 1057.29,1282.96 1053.42,1281.82C1035.75,1276.6 996.004,1307.17 989.122,1326.72C986.658,1333.72 988.41,1341 987.132,1347.72C978.912,1391.25 961.981,1464.82 934.586,1499.74C913.17,1527.05 855.617,1584.89 827.523,1605.25C801.04,1624.41 786.248,1649.91 791.059,1683.41C793.139,1697.89 792.785,1712.95 795.558,1727.07C837.269,1719.8 878.061,1714.21 915.754,1711.25C1032.57,1702.09 940.95,1660.86 995.921,1644.83C1012.81,1639.9 1037.5,1634.55 1067.04,1629.67ZM724.946,1740.68C720.9,1711.47 718.047,1680.48 707.653,1655.53C703.951,1646.63 702.243,1637.11 702.972,1627.18C704.58,1605.74 720.347,1594.79 735.526,1583.04C765.804,1559.6 800.847,1486.93 795.725,1448.43C791.927,1448.94 792.023,1451.79 791.368,1453.76C781.597,1483.17 765.611,1509.05 744.622,1532.42C721.172,1558.53 693.52,1580.42 668.807,1605.26C636.897,1637.36 599.493,1685.78 581.375,1729.68C574.791,1745.68 569.533,1762 566.653,1778.81C615.667,1765.64 670.048,1752.2 724.946,1740.68Z"/>
</svg>
