<?xml version="1.0" encoding="UTF-8"?>
<svg xmlns="http://www.w3.org/2000/svg"
     width="100%" height="100%" viewBox="0 0 2048 2048"
     role="img" aria-labelledby="title desc">

    <title id="title">Better Than Wolves Logo - Climate and Ecology</title>
    <desc id="desc">A wolf silhouette, on top of a globe, inside of a green forbidden sign.</desc>

    <g transform="matrix(20.48,0,0,20.48,0,0)">
        <defs>
            <mask id="global-mask">
                <circle fill="white" cx="50" cy="50" r="50"/>
            </mask>

            <mask id="forbidden-mask">
                <rect fill="white" x="0" y="0" width="100" height="100"/>
                <circle fill="black" cx="50" cy="50" r="40"/>
                <rect fill="white"
                    x="0" y="0" width="100" height="12"
                    transform="
                        translate(50,50)
                        rotate(45)
                        scale(1.5,1)
                        translate(-50,-6)
                    "/>
            </mask>
        </defs>

        <g mask="url(#global-mask)">
            <g transform="matrix(0.548813,0,0,0.548813,-24.2793,-6.51023)">
                <ellipse cx="134.823" cy="102.904" rx="74.902" ry="73.75" style="fill:url(#water-gradient);"/>
                <path d="M134.826,29.155C118.091,29.092 101.406,34.821 88.264,45.186C90.954,46.972 93.257,44.075 95.134,43.47C98.387,47.263 92.627,49.647 91.124,52.19C93.494,54.67 97.572,55.153 99.401,58.326C102.316,63.455 100.052,69.518 99.113,74.895C97.672,81.664 96.416,88.84 98.831,95.554C99.548,100.082 103.226,102.454 106.715,104.617C108.265,107.984 111.398,110.124 114.487,112C122.333,116.31 130.544,120.674 136.332,127.696C139.627,130.737 135.034,133.693 135.397,137.184C134.709,141.165 137.144,144.647 140.135,146.975C142.989,149.32 146.485,151.747 146.84,155.783C147.241,158.66 146.409,161.868 144.217,163.857C141.642,162.516 138.456,167.256 136.42,169.142C132.427,172.76 139.231,174.58 141.85,172.961C143.774,169.867 147.773,168.886 150.634,166.817C153.166,164.961 154.727,162.298 158.314,163.769C162.411,163.235 164.54,159.149 168.051,157.411C170.927,155.266 174.952,154.377 177.014,151.311C178.907,147.821 183.871,147.483 185.693,143.818C188.107,139.854 187.724,134.865 189.866,130.84C188.339,127.847 184.384,127.175 181.345,126.554C175.845,126.488 170.349,125.102 165.671,122.147C158.99,118.991 151.366,120.286 144.228,120.172C140.07,120.104 134.796,120.769 132.153,116.742C129.726,114.261 129.574,110.758 129.562,107.639C126.518,103.837 124.438,110.67 121.728,109.677C120.196,106.799 120.388,102.534 122.328,99.876C126.864,97.168 132.52,99.624 136.397,102.452C138.427,104.668 144.293,105.38 140.761,101.047C138.336,97.379 139.54,92.437 142.635,89.561C146.914,85.808 150.12,80.995 152.346,75.786C153.611,72.891 157.82,71.663 154.822,68.209C153.309,64.7 150.067,61.835 146.025,62.291C141.968,62.164 137.582,63.075 134.76,66.214C132.325,68.445 132.075,65.639 134.088,64.254C135.901,62.449 132.373,61.723 135.445,60.5C136.507,56.401 130.809,54.403 127.72,53.212C124.61,51.692 119.007,53.875 118.08,49.392C116.578,46.634 113.137,45.084 112.17,42.155C117.843,38.354 124.635,36.732 131.403,36.639C138.806,36.39 146.51,36.346 153.527,39.01C155.745,41.371 158.115,43.782 161.533,44.798C164.924,46.05 166.599,49.565 169.552,51.222C172.646,51.587 177.689,46.509 178.678,51.775C179.033,56.196 184.927,58.649 182.914,63.579C182.117,66.974 185.048,69.322 187.065,71.529C191.493,77.223 193.923,84.105 195.764,90.995C198.361,98.88 202.199,106.503 208.09,112.442C210.126,114.927 209.104,107.637 209.659,106.24C210.791,84.264 201.224,62.123 184.556,47.765C170.955,35.783 152.945,29.082 134.826,29.155ZM63.826,82.218C61.119,84.421 61.552,89.633 60.588,93.118C59.178,103.343 60.011,113.865 62.982,123.749C64.473,119.957 68.881,118.07 69.052,113.613C70.548,106.063 70.387,98.012 67.496,90.799C66.016,88.285 66.84,83.352 63.826,82.218ZM86.764,142.999C83.199,143.541 79.9,145.792 77.68,148.59C77.173,152.23 81.973,154.376 83.996,157.04C91.387,163.777 100.135,169.043 109.576,172.343C110.338,169.691 103.185,167.979 105.764,165.343C107.516,161.895 101.118,159.4 99.927,156.135C97.312,152.542 96.117,147.892 92.286,145.249C90.679,144.124 88.774,143.04 86.764,142.999Z" style="fill:#393;fill-rule:nonzero;"/>
            </g>
            <path d="M62.306,64.593C62.306,64.593 62.46,62.088 62.764,61.332C62.764,61.332 64.049,62.858 63.936,64.632C63.936,64.632 64.582,64.033 64.553,63.192C64.553,63.192 64.765,63.842 64.765,64.205C64.887,66.771 64.968,68.954 65.233,70.39C65.497,71.827 65.724,73.269 65.95,74.712C66.198,76.286 66.929,76.958 68.57,76.973C69.828,76.985 71.086,76.965 72.342,76.991C72.765,76.999 72.752,76.903 72.693,76.524C72.523,75.41 72.057,74.526 71.034,73.935C70.64,73.707 70.238,73.55 69.789,73.564C69.452,73.575 69.254,73.456 69.144,73.158C68.797,72.212 68.702,71.227 68.615,70.169C68.615,70.169 68.649,66.496 68.944,63.159C69.21,60.157 69.741,57.448 69.726,57.592C69.693,57.897 69.852,56.868 70.132,56.569C70.922,55.729 71.684,54.87 72.302,53.894C72.914,52.927 73.443,51.943 73.511,50.782C73.513,50.734 73.567,50.689 73.628,50.596C73.99,51.004 74.016,51.512 74.224,52.054C74.843,50.251 74.536,48.506 74.539,46.764C75.01,47.454 75.286,48.199 75.382,49.158C76.197,46.857 76.239,44.653 75.724,42.327C76.483,42.849 76.911,43.492 77.334,44.162C77.339,42.348 76.639,40.726 75.786,39.003C76.269,39.283 76.556,39.574 77.038,39.634C76.603,38.898 76.179,38.183 75.711,37.392C76.25,37.704 76.724,37.978 77.343,38.336C76.207,36.317 74.869,34.616 73.539,32.889C73.811,32.729 74.023,32.907 74.242,33C74.456,33.091 74.662,33.2 75.002,33.364C74.286,32.434 73.482,31.756 72.904,30.903C71.887,29.397 71.542,27.859 72.714,26.262C72.925,25.975 73.084,25.654 73.293,25.365C73.856,24.586 73.832,23.773 73.522,22.914C73.4,22.575 73.283,22.557 73.038,22.787C72.603,23.196 72.163,23.599 71.721,24.001C71.313,24.37 70.821,24.777 70.282,24.558C69.802,24.363 69.896,23.741 69.877,23.288C69.853,22.68 70.032,22.089 70.152,21.493C70.353,20.483 70.247,19.549 69.429,18.778C69.096,18.465 68.848,18.082 68.614,17.686C68.441,17.393 68.219,17.044 67.766,17.156C67.405,17.246 67.219,17.55 67.067,17.849C66.316,19.32 65.576,20.797 64.833,22.272C64.658,22.62 64.298,22.758 63.974,22.889C62.54,23.47 61.493,24.401 60.943,25.832C60.241,27.66 58.73,28.77 57.147,29.816C56.798,30.047 56.466,30.31 56.157,30.59C55.755,30.953 55.834,31.219 56.391,31.38C57.122,31.59 57.875,31.573 58.623,31.492C58.96,31.455 59.293,31.356 59.618,31.258C59.774,31.211 59.957,31.093 60.067,31.222C60.202,31.381 59.983,31.492 59.89,31.601C59.237,32.364 58.708,33.207 58.218,34.105C58.663,33.867 59.108,33.627 59.553,33.389C59.065,34.411 58.524,35.389 57.682,36.22C58.037,36.228 58.284,36.06 58.546,35.93C58.641,35.883 58.752,35.852 58.83,35.927C58.957,36.051 58.819,36.138 58.746,36.214C58.211,36.77 57.679,37.328 57.216,37.945C56.787,38.516 56.396,39.107 56.182,39.792C56.115,40.006 56.009,40.172 55.758,40.234C54.611,40.518 52.325,41.112 52.325,41.112C52.325,41.112 50.157,41.574 47.233,41.798C44.309,42.022 40.284,42.919 38.323,44.015C36.361,45.11 34.34,47.14 32.771,49.138C31.742,50.451 30.838,51.844 29.878,53.2C28.564,55.055 27.197,56.862 25.09,57.988C23.871,58.641 22.532,58.913 21.216,59.27C19.021,59.865 16.993,60.729 15.51,62.505C15.227,62.844 15.009,63.212 14.802,63.678C16.106,63.386 17.256,63.727 18.394,64.056C19.955,64.509 21.52,64.875 23.181,64.713C22.682,65.051 22.116,65.218 21.563,65.411C21.444,65.452 21.321,65.476 21.369,65.636C21.406,65.758 21.517,65.744 21.618,65.747C23.028,65.793 24.443,65.905 25.904,65.318C25.64,65.789 25.265,66.021 24.947,66.415C27.156,66.092 28.976,65.262 30.48,63.631L30.48,65.032C31.263,63.76 31.552,62.477 31.888,61.122C31.99,61.447 32.064,61.684 32.155,61.973C32.648,59.99 32.873,58.016 33.418,56.083C33.418,56.669 33.45,57.256 33.412,57.839C33.281,59.888 33.105,61.924 32.127,63.813C31.622,64.785 30.902,65.563 30.056,66.235C29.22,66.898 28.857,67.689 28.92,68.745C29.063,71.155 29.022,73.567 28.92,75.98C28.852,77.563 29.636,78.275 31.275,78.268C32.634,78.262 33.992,78.251 35.352,78.249C35.58,78.249 35.817,78.298 35.748,77.94C35.532,76.831 35.311,75.73 34.134,75.143C34.008,75.081 33.883,74.969 33.757,74.969C32.652,74.969 32.494,74.157 32.362,73.392C32.198,72.442 32.238,71.481 32.379,70.52C32.675,68.517 34.028,67.288 35.632,66.215C36.874,65.385 38.214,64.703 39.414,63.809C40.488,63.009 41.374,62.062 42.03,60.915C42.074,60.838 42.094,60.718 42.257,60.729C42.147,62.381 41.356,63.718 40.233,64.903C39.67,65.497 39.077,66.061 39.149,66.975C39.183,67.398 39.317,67.788 39.531,68.139C40.427,69.606 40.946,71.213 41.445,72.829C41.964,74.509 42.457,74.877 44.264,74.876C45.516,74.876 46.769,74.864 48.021,74.871C48.336,74.872 48.455,74.835 48.342,74.474C48.071,73.614 47.917,72.709 46.982,72.226C46.453,71.952 45.888,71.788 45.299,71.807C44.842,71.821 44.58,71.63 44.381,71.283C43.916,70.48 43.497,69.655 43.227,68.77C42.806,67.39 43.263,66.219 44.254,65.239C45.305,64.198 46.626,63.468 47.751,62.507C49.19,61.278 50.395,59.881 51.105,58.131C51.215,57.861 51.274,57.573 51.365,57.27C52.696,57.832 54.05,58.268 55.404,58.703C55.568,58.756 55.878,58.734 55.873,58.982C55.868,59.183 55.618,59.262 55.438,59.351C55.384,59.378 55.329,59.403 55.211,59.46C55.582,59.727 55.94,59.959 56.266,60.228C56.441,60.372 56.767,60.571 56.302,60.779C56.034,60.9 56.207,61.103 56.246,61.235C56.856,63.291 57.262,65.386 57.573,67.5C57.843,69.347 58.086,71.198 57.772,73.067C57.696,73.522 57.759,73.987 57.997,74.383C58.667,75.501 58.86,76.736 59.007,77.984C59.135,79.081 59.783,79.756 60.916,79.793C62.517,79.843 64.119,79.815 65.721,79.815C65.899,79.815 66.13,79.819 66.066,79.545C65.836,78.562 65.741,77.522 64.794,76.848C64.328,76.515 63.855,76.215 63.249,76.271C62.851,76.307 62.723,76.042 62.58,75.788C62.038,74.824 61.978,73.754 61.969,72.699C61.943,70.046 62.116,67.398 62.316,64.591" style="fill:#fff;fill-rule:nonzero;"/>

            <rect mask="url(#forbidden-mask)" x="0" y="0" width="100" height="100" style="fill:url(#ring-gradient);"/>
        </g>
    </g>
    <defs>
        <radialGradient id="water-gradient" cx="0" cy="0" r="1" gradientUnits="userSpaceOnUse" gradientTransform="matrix(82.7927,68.3891,-67.3376,81.5197,101.824,88.3174)"><stop offset="0" style="stop-color:#fff;stop-opacity:1"/><stop offset="1" style="stop-color:#0cf;stop-opacity:1"/></radialGradient>
        <radialGradient id="ring-gradient" cx="0" cy="0" r="1" gradientUnits="userSpaceOnUse" gradientTransform="matrix(63.5171,62.7297,-62.7297,63.5171,18.5039,17.8478)"><stop offset="0" style="stop-color:#b3ff56;stop-opacity:1"/><stop offset="1" style="stop-color:#15d652;stop-opacity:1"/></radialGradient>
    </defs>
</svg>
