<?xml version="1.0" encoding="UTF-8"?>
<svg xmlns="http://www.w3.org/2000/svg"
     width="100%" height="100%" viewBox="0 0 2048 2048"
     role="img" aria-labelledby="title desc">

    <title id="title">Better Than Wolves Logo - Neurodiversity</title>
    <desc id="desc">A wolf silhouette inside of a forbidden sign, styled in the colors of the autism flag, with a trans flag stripe, and the neurodiversity symbol.</desc>

    <defs>
        <mask id="global-mask">
            <circle fill="white" cx="50" cy="50" r="50"/>
        </mask>

        <mask id="ring-mask">
            <rect fill="white" x="0" y="0" width="100" height="100"/>
            <circle fill="black" cx="50" cy="50" r="40"/>
        </mask>

        <mask id="blue-ring-mask">
            <circle fill="white" cx="50" cy="50" r="43"/>
            <circle fill="black" cx="50" cy="50" r="40"/>
        </mask>

        <linearGradient id="e" x1=".25" x2=".33534" y1="1" y2=".77539" gradientTransform="matrix(116.26 0 0 125.62 -376.6 -137.61)" gradientUnits="userSpaceOnUse">
            <stop stop-color="#d566a6" offset="0"/>
            <stop stop-color="#ea68a2" offset="1"/>
        </linearGradient>
        <linearGradient id="d" x1=".25008" x2=".33771" y1="1.0039" y2="1.2265" gradientTransform="matrix(116.26 0 0 125.62 -376.6 -137.61)" gradientUnits="userSpaceOnUse">
            <stop stop-color="#d566a6" offset="0"/>
            <stop stop-color="#ae64ad" offset="1"/>
        </linearGradient>
        <linearGradient id="c" x1=".33687" x2=".4503" y1="1.2255" y2="1.2846" gradientTransform="matrix(116.26 0 0 125.62 -376.6 -137.61)" gradientUnits="userSpaceOnUse">
            <stop stop-color="#ae64ad" offset="0"/>
            <stop stop-color="#9966b1" offset="1"/>
        </linearGradient>
        <linearGradient id="b" x1=".78101" x2="1.2158" y1=".81573" y2="1.1823" gradientTransform="matrix(116.26 0 0 125.62 -376.6 -137.61)" gradientUnits="userSpaceOnUse">
            <stop stop-color="#f18365" offset="0"/>
            <stop stop-color="#f7a43f" offset="1"/>
        </linearGradient>
        <linearGradient id="a" x1=".57754" x2=".77888" y1=".72082" y2=".81425" gradientTransform="matrix(116.26 0 0 125.62 -376.6 -137.61)" gradientUnits="userSpaceOnUse">
            <stop stop-color="#f07583" offset="0"/>
            <stop stop-color="#f18365" offset="1"/>
        </linearGradient>
        <linearGradient id="r" x1=".45057" x2=".57386" y1=".71587" y2=".71938" gradientTransform="matrix(116.26 0 0 125.62 -376.6 -137.61)" gradientUnits="userSpaceOnUse">
            <stop stop-color="#ef7090" offset="0"/>
            <stop stop-color="#f07583" offset="1"/>
        </linearGradient>
        <linearGradient id="q" x1=".33771" x2=".44869" y1=".77351" y2=".7165" gradientTransform="matrix(116.26 0 0 125.62 -376.6 -137.61)" gradientUnits="userSpaceOnUse">
            <stop stop-color="#ea68a2" offset="0"/>
            <stop stop-color="#ef7090" offset="1"/>
        </linearGradient>
        <linearGradient id="p" x1=".44734" x2=".57943" y1="1.2836" y2="1.2787" gradientTransform="matrix(116.26 0 0 125.62 -376.6 -137.61)" gradientUnits="userSpaceOnUse">
            <stop stop-color="#9966b1" offset="0"/>
            <stop stop-color="#7a75c1" offset="1"/>
        </linearGradient>
        <linearGradient id="o" x1=".57529" x2=".78182" y1="1.28" y2="1.184" gradientTransform="matrix(116.26 0 0 125.62 -376.6 -137.61)" gradientUnits="userSpaceOnUse">
            <stop stop-color="#7a75c1" offset="0"/>
            <stop stop-color="#339cdc" offset="1"/>
        </linearGradient>
        <linearGradient id="n" x1="1.219" x2=".77859" y1=".81573" y2="1.186" gradientTransform="matrix(116.26 0 0 125.62 -376.6 -137.61)" gradientUnits="userSpaceOnUse">
            <stop stop-color="#03b7de" offset="0"/>
            <stop stop-color="#339cdc" offset="1"/>
        </linearGradient>
        <linearGradient id="m" x1="1.2223" x2="1.4225" y1=".81329" y2=".72082" gradientTransform="matrix(116.26 0 0 125.62 -376.6 -137.61)" gradientUnits="userSpaceOnUse">
            <stop stop-color="#03b7de" offset="0"/>
            <stop stop-color="#04b7d8" offset="1"/>
        </linearGradient>
        <linearGradient id="l" x1="1.4286" x2="1.5494" y1=".7199" y2=".71587" gradientTransform="matrix(116.26 0 0 125.62 -376.6 -137.61)" gradientUnits="userSpaceOnUse">
            <stop stop-color="#04b7d8" offset="0"/>
            <stop stop-color="#09b6c4" offset="1"/>
        </linearGradient>
        <linearGradient id="k" x1="1.5525" x2="1.6623" y1=".71637" y2=".77351" gradientTransform="matrix(116.26 0 0 125.62 -376.6 -137.61)" gradientUnits="userSpaceOnUse">
            <stop stop-color="#09b6c4" offset="0"/>
            <stop stop-color="#12b4b1" offset="1"/>
        </linearGradient>
        <linearGradient id="j" x1="1.75" x2="1.665" y1="1" y2=".77646" gradientTransform="matrix(116.26 0 0 125.62 -376.6 -137.61)" gradientUnits="userSpaceOnUse">
            <stop stop-color="#3abb99" offset="0"/>
            <stop stop-color="#12b4b1" offset="1"/>
        </linearGradient>
        <linearGradient id="i" x1="1.6585" x2="1.7511" y1="1.2295" y2="1.0034" gradientTransform="matrix(116.26 0 0 125.62 -376.6 -137.61)" gradientUnits="userSpaceOnUse">
            <stop stop-color="#c3c64c" offset="0"/>
            <stop stop-color="#3abb99" offset="1"/>
        </linearGradient>
        <linearGradient id="h" x1="1.5494" x2="1.6645" y1="1.2851" y2="1.2255" gradientTransform="matrix(116.26 0 0 125.62 -376.6 -137.61)" gradientUnits="userSpaceOnUse">
            <stop stop-color="#e8c638" offset="0"/>
            <stop stop-color="#c3c64c" offset="1"/>
        </linearGradient>
        <linearGradient id="g" x1="1.4214" x2="1.5525" y1="1.2792" y2="1.2842" gradientTransform="matrix(116.26 0 0 125.62 -376.6 -137.61)" gradientUnits="userSpaceOnUse">
            <stop stop-color="#f9bd33" offset="0"/>
            <stop stop-color="#e8c638" offset="1"/>
        </linearGradient>
        <linearGradient id="f" x1="1.219" x2="1.429" y1="1.1843" y2="1.2822" gradientTransform="matrix(116.26 0 0 125.62 -376.6 -137.61)" gradientUnits="userSpaceOnUse">
            <stop stop-color="#f7a43f" offset="0"/>
            <stop stop-color="#f9bd33" offset="1"/>
        </linearGradient>
    </defs>

    <g mask="url(#global-mask)" transform="scale(20.48)">
        <circle cx="50" cy="50" r="45" fill="#eee"/>
        
        <path fill="#000" d="M62.306,64.593c0,-0 0.154,-2.505 0.458,-3.261c0,-0 1.285,1.526 1.172,3.3c0,-0 0.646,-0.599 0.617,-1.44c-0,-0 0.212,0.65 0.212,1.013c0.122,2.566 0.203,4.749 0.468,6.185c0.264,1.437 0.491,2.879 0.717,4.322c0.248,1.574 0.979,2.246 2.62,2.261c1.258,0.012 2.516,-0.008 3.772,0.018c0.423,0.008 0.41,-0.088 0.351,-0.467c-0.17,-1.114 -0.636,-1.998 -1.659,-2.589c-0.394,-0.228 -0.796,-0.385 -1.245,-0.371c-0.337,0.011 -0.535,-0.108 -0.645,-0.406c-0.347,-0.946 -0.442,-1.931 -0.529,-2.989c0,-0 0.034,-3.673 0.329,-7.01c0.266,-3.002 0.797,-5.711 0.782,-5.567c-0.033,0.305 0.126,-0.724 0.406,-1.023c0.79,-0.84 1.552,-1.699 2.17,-2.675c0.612,-0.967 1.141,-1.951 1.209,-3.112c0.002,-0.048 0.056,-0.093 0.117,-0.186c0.362,0.408 0.388,0.916 0.596,1.458c0.619,-1.803 0.312,-3.548 0.315,-5.29c0.471,0.69 0.747,1.435 0.843,2.394c0.815,-2.301 0.857,-4.505 0.342,-6.831c0.759,0.522 1.187,1.165 1.61,1.835c0.005,-1.814 -0.695,-3.436 -1.548,-5.159c0.483,0.28 0.77,0.571 1.252,0.631c-0.435,-0.736 -0.859,-1.451 -1.327,-2.242c0.539,0.312 1.013,0.586 1.632,0.944c-1.136,-2.019 -2.474,-3.72 -3.804,-5.447c0.272,-0.16 0.484,0.018 0.703,0.111c0.214,0.091 0.42,0.2 0.76,0.364c-0.716,-0.93 -1.52,-1.608 -2.098,-2.461c-1.017,-1.506 -1.362,-3.044 -0.19,-4.641c0.211,-0.287 0.37,-0.608 0.579,-0.897c0.563,-0.779 0.539,-1.592 0.229,-2.451c-0.122,-0.339 -0.239,-0.357 -0.484,-0.127c-0.435,0.409 -0.875,0.812 -1.317,1.214c-0.408,0.369 -0.9,0.776 -1.439,0.557c-0.48,-0.195 -0.386,-0.817 -0.405,-1.27c-0.024,-0.608 0.155,-1.199 0.275,-1.795c0.201,-1.01 0.095,-1.944 -0.723,-2.715c-0.333,-0.313 -0.581,-0.696 -0.815,-1.092c-0.173,-0.293 -0.395,-0.642 -0.848,-0.53c-0.361,0.09 -0.547,0.394 -0.699,0.693c-0.751,1.471 -1.491,2.948 -2.234,4.423c-0.175,0.348 -0.535,0.486 -0.859,0.617c-1.434,0.581 -2.481,1.512 -3.031,2.943c-0.702,1.828 -2.213,2.938 -3.796,3.984c-0.349,0.231 -0.681,0.494 -0.99,0.774c-0.402,0.363 -0.323,0.629 0.234,0.79c0.731,0.21 1.484,0.193 2.232,0.112c0.337,-0.037 0.67,-0.136 0.995,-0.234c0.156,-0.047 0.339,-0.165 0.449,-0.036c0.135,0.159 -0.084,0.27 -0.177,0.379c-0.653,0.763 -1.182,1.606 -1.672,2.504c0.445,-0.238 0.89,-0.478 1.335,-0.716c-0.488,1.022 -1.029,2 -1.871,2.831c0.355,0.008 0.602,-0.16 0.864,-0.29c0.095,-0.047 0.206,-0.078 0.284,-0.003c0.127,0.124 -0.011,0.211 -0.084,0.287c-0.535,0.556 -1.067,1.114 -1.53,1.731c-0.429,0.571 -0.82,1.162 -1.034,1.847c-0.067,0.214 -0.173,0.38 -0.424,0.442c-1.147,0.284 -3.433,0.878 -3.433,0.878c-0,0 -2.168,0.462 -5.092,0.686c-2.924,0.224 -6.949,1.121 -8.91,2.217c-1.962,1.095 -3.983,3.125 -5.552,5.123c-1.029,1.313 -1.933,2.706 -2.893,4.062c-1.314,1.855 -2.681,3.662 -4.788,4.788c-1.219,0.653 -2.558,0.925 -3.874,1.282c-2.195,0.595 -4.223,1.459 -5.706,3.235c-0.283,0.339 -0.501,0.707 -0.708,1.173c1.304,-0.292 2.454,0.049 3.592,0.378c1.561,0.453 3.126,0.819 4.787,0.657c-0.499,0.338 -1.065,0.505 -1.618,0.698c-0.119,0.041 -0.242,0.065 -0.194,0.225c0.037,0.122 0.148,0.108 0.249,0.111c1.41,0.046 2.825,0.158 4.286,-0.429c-0.264,0.471 -0.639,0.703 -0.957,1.097c2.209,-0.323 4.029,-1.153 5.533,-2.784l-0,1.401c0.783,-1.272 1.072,-2.555 1.408,-3.91c0.102,0.325 0.176,0.562 0.267,0.851c0.493,-1.983 0.718,-3.957 1.263,-5.89c0,0.586 0.032,1.173 -0.006,1.756c-0.131,2.049 -0.307,4.085 -1.285,5.974c-0.505,0.972 -1.225,1.75 -2.071,2.422c-0.836,0.663 -1.199,1.454 -1.136,2.51c0.143,2.41 0.102,4.822 -0,7.235c-0.068,1.583 0.716,2.295 2.355,2.288c1.359,-0.006 2.717,-0.017 4.077,-0.019c0.228,-0 0.465,0.049 0.396,-0.309c-0.216,-1.109 -0.437,-2.21 -1.614,-2.797c-0.126,-0.062 -0.251,-0.174 -0.377,-0.174c-1.105,-0 -1.263,-0.812 -1.395,-1.577c-0.164,-0.95 -0.124,-1.911 0.017,-2.872c0.296,-2.003 1.649,-3.232 3.253,-4.305c1.242,-0.83 2.582,-1.512 3.782,-2.406c1.074,-0.8 1.96,-1.747 2.616,-2.894c0.044,-0.077 0.064,-0.197 0.227,-0.186c-0.11,1.652 -0.901,2.989 -2.024,4.174c-0.563,0.594 -1.156,1.158 -1.084,2.072c0.034,0.423 0.168,0.813 0.382,1.164c0.896,1.467 1.415,3.074 1.914,4.69c0.519,1.68 1.012,2.048 2.819,2.047c1.252,-0 2.505,-0.012 3.757,-0.005c0.315,0.001 0.434,-0.036 0.321,-0.397c-0.271,-0.86 -0.425,-1.765 -1.36,-2.248c-0.529,-0.274 -1.094,-0.438 -1.683,-0.419c-0.457,0.014 -0.719,-0.177 -0.918,-0.524c-0.465,-0.803 -0.884,-1.628 -1.154,-2.513c-0.421,-1.38 0.036,-2.551 1.027,-3.531c1.051,-1.041 2.372,-1.771 3.497,-2.732c1.439,-1.229 2.644,-2.626 3.354,-4.376c0.11,-0.27 0.169,-0.558 0.26,-0.861c1.331,0.562 2.685,0.998 4.039,1.433c0.164,0.053 0.474,0.031 0.469,0.279c-0.005,0.201 -0.255,0.28 -0.435,0.369c-0.054,0.027 -0.109,0.052 -0.227,0.109c0.371,0.267 0.729,0.499 1.055,0.768c0.175,0.144 0.501,0.343 0.036,0.551c-0.268,0.121 -0.095,0.324 -0.056,0.456c0.61,2.056 1.016,4.151 1.327,6.265c0.27,1.847 0.513,3.698 0.199,5.567c-0.076,0.455 -0.013,0.92 0.225,1.316c0.67,1.118 0.863,2.353 1.01,3.601c0.128,1.097 0.776,1.772 1.909,1.809c1.601,0.05 3.203,0.022 4.805,0.022c0.178,0 0.409,0.004 0.345,-0.27c-0.23,-0.983 -0.325,-2.023 -1.272,-2.697c-0.466,-0.333 -0.939,-0.633 -1.545,-0.577c-0.398,0.036 -0.526,-0.229 -0.669,-0.483c-0.542,-0.964 -0.602,-2.034 -0.611,-3.089c-0.026,-2.653 0.147,-5.301 0.347,-8.108"/>

        <use href="#trans-flag" 
             transform="
                 translate(50,50)
                 rotate(45)
                 scale(1,0.035)
                 translate(-450,-300)
             "/>
        
        <g mask="url(#ring-mask)">
            <use href="#autism-flag" transform="scale(0.16667)"/>
        </g>

        <rect width="100" height="100" fill="#5BCEFA" mask="url(#blue-ring-mask)"/>

        <rect y="81" width="100" height="6" fill="#fff"/>

        <ellipse cx="50" cy="84" rx="15" ry="8" fill="#fff"/>

        <g fill="none" stroke-width="26.589"
           transform="
               scale(0.1,0.1)
               translate(760,852)
           "
        >
            <path d="m-285.8-35.136c7.7557 5.5976 43.498 40.974 51.254 46.571" stroke="url(#b)"/>
            <path d="m-309.45-47.06c6.9371 1.7591 15.166 5.7558 23.999 12.131" stroke="url(#a)"/>
            <path d="m-324.21-47.682c4.3203-0.89195 9.5989-0.63883 15.12 0.7619" stroke="url(#r)"/>
            <path d="m-337.3-40.446c3.4818-3.5709 8.1679-6.3407 13.433-7.4284" stroke="url(#q)"/>
            <path d="m-347.53-11.988c0-10.74 3.7616-21.75 10.56-28.722" stroke="url(#e)"/>
            <path d="m-337.33 16.464c-6.7982-6.972-10.193-18.127-10.193-28.867" stroke="url(#d)"/>
            <path d="m-324.21 23.705c-5.2651-1.0879-9.7595-3.8244-13.241-7.3953" stroke="url(#c)"/>
            <path d="m-309.45 23.084c-5.521 1.4001-10.822 1.4417-15.142 0.5493" stroke="url(#p)"/>
            <path d="m-285.8 11.16c-8.8327 6.375-17.338 10.302-24.275 12.061" stroke="url(#o)"/>
            <path d="m-234.88-35.136c-7.7557 5.5976-43.543 40.942-51.299 46.54" stroke="url(#n)"/>
            <path d="m-211.22-47.06c-6.9371 1.7591-15.153 5.8183-23.985 12.193" stroke="url(#m)"/>
            <path d="m-196.46-47.682c-4.3203-0.89195-9.7148-0.63883-15.236 0.7619" stroke="url(#l)"/>
            <path d="m-183.34-40.441c-3.4818-3.5708-8.2803-6.2255-13.545-7.3132" stroke="url(#k)"/>
            <path d="m-173.14-11.988c0-10.74-3.8059-21.832-10.604-28.804" stroke="url(#j)"/>
            <path d="m-183.34 16.464c6.7982-6.972 10.264-18.074 10.264-28.814" stroke="url(#i)"/>
            <path d="m-196.59 23.83c5.2651-1.0879 9.9158-4.0119 13.398-7.5828" stroke="url(#h)"/>
            <path d="m-211.47 23.084c5.521 1.4001 11.036 1.5091 15.356 0.6168" stroke="url(#g)"/>
            <path d="m-234.88 11.16c8.8327 6.375 17.129 10.357 24.066 12.116" stroke="url(#f)"/>
        </g>
    </g>

    <defs>
        <g id="autism-flag">
            <rect y="0"   width="900" height="90" fill="#e43345"/>
            <rect y="90" width="900" height="80" fill="#f68249"/>
            <rect y="170" width="900" height="260" fill="#fac758"/>
            <rect y="430" width="900" height="80" fill="#98d570"/>
            <rect y="510" width="900" height="90" fill="#26ac74"/>
        </g>

        <g id="trans-flag">
            <rect y="0"    width="900" height="600" fill="#5BCEFA"/>
            <rect y="120"  width="900" height="360" fill="#F5A9B8"/>
            <rect y="240"  width="900" height="120" fill="#FFFFFF"/>
        </g>
    </defs>
</svg>
