<?xml version="1.0" encoding="UTF-8" standalone="no"?>
<!DOCTYPE svg PUBLIC "-//W3C//DTD SVG 1.1//EN" "http://www.w3.org/Graphics/SVG/1.1/DTD/svg11.dtd">
<svg width="100%" height="100%" viewBox="0 0 1400 640" version="1.1" xmlns="http://www.w3.org/2000/svg" xmlns:xlink="http://www.w3.org/1999/xlink" xml:space="preserve" xmlns:serif="http://www.serif.com/" style="fill-rule:evenodd;clip-rule:evenodd;stroke-linejoin:round;stroke-miterlimit:2;">
    <g transform="matrix(0.700676,0,0,1,0,0)">
        <rect x="0" y="0" width="2000" height="640" style="fill:rgb(237,48,36);"/>
    </g>
    <g id="Logo" transform="matrix(1.0031,0,0,1.0031,8.67546,0.470759)">
        <g transform="matrix(6.29189,0,0,6.29189,-8.64865,4)">
            <circle cx="50" cy="50" r="45" style="fill:white;"/>
        </g>
        <g transform="matrix(6.29189,0,0,6.29189,-8.64865,4)">
            <path d="M62.306,64.593C62.306,64.593 62.46,62.088 62.764,61.332C62.764,61.332 64.049,62.858 63.936,64.632C63.936,64.632 64.582,64.033 64.553,63.192C64.553,63.192 64.765,63.842 64.765,64.205C64.887,66.771 64.968,68.954 65.233,70.39C65.497,71.827 65.724,73.269 65.95,74.712C66.198,76.286 66.929,76.958 68.57,76.973C69.828,76.985 71.086,76.965 72.342,76.991C72.765,76.999 72.752,76.903 72.693,76.524C72.523,75.41 72.057,74.526 71.034,73.935C70.64,73.707 70.238,73.55 69.789,73.564C69.452,73.575 69.254,73.456 69.144,73.158C68.797,72.212 68.702,71.227 68.615,70.169C68.615,70.169 68.649,66.496 68.944,63.159C69.21,60.157 69.741,57.448 69.726,57.592C69.693,57.897 69.852,56.868 70.132,56.569C70.922,55.729 71.684,54.87 72.302,53.894C72.914,52.927 73.443,51.943 73.511,50.782C73.513,50.734 73.567,50.689 73.628,50.596C73.99,51.004 74.016,51.512 74.224,52.054C74.843,50.251 74.536,48.506 74.539,46.764C75.01,47.454 75.286,48.199 75.382,49.158C76.197,46.857 76.239,44.653 75.724,42.327C76.483,42.849 76.911,43.492 77.334,44.162C77.339,42.348 76.639,40.726 75.786,39.003C76.269,39.283 76.556,39.574 77.038,39.634C76.603,38.898 76.179,38.183 75.711,37.392C76.25,37.704 76.724,37.978 77.343,38.336C76.207,36.317 74.869,34.616 73.539,32.889C73.811,32.729 74.023,32.907 74.242,33C74.456,33.091 74.662,33.2 75.002,33.364C74.286,32.434 73.482,31.756 72.904,30.903C71.887,29.397 71.542,27.859 72.714,26.262C72.925,25.975 73.084,25.654 73.293,25.365C73.856,24.586 73.832,23.773 73.522,22.914C73.4,22.575 73.283,22.557 73.038,22.787C72.603,23.196 72.163,23.599 71.721,24.001C71.313,24.37 70.821,24.777 70.282,24.558C69.802,24.363 69.896,23.741 69.877,23.288C69.853,22.68 70.032,22.089 70.152,21.493C70.353,20.483 70.247,19.549 69.429,18.778C69.096,18.465 68.848,18.082 68.614,17.686C68.441,17.393 68.219,17.044 67.766,17.156C67.405,17.246 67.219,17.55 67.067,17.849C66.316,19.32 65.576,20.797 64.833,22.272C64.658,22.62 64.298,22.758 63.974,22.889C62.54,23.47 61.493,24.401 60.943,25.832C60.241,27.66 58.73,28.77 57.147,29.816C56.798,30.047 56.466,30.31 56.157,30.59C55.755,30.953 55.834,31.219 56.391,31.38C57.122,31.59 57.875,31.573 58.623,31.492C58.96,31.455 59.293,31.356 59.618,31.258C59.774,31.211 59.957,31.093 60.067,31.222C60.202,31.381 59.983,31.492 59.89,31.601C59.237,32.364 58.708,33.207 58.218,34.105C58.663,33.867 59.108,33.627 59.553,33.389C59.065,34.411 58.524,35.389 57.682,36.22C58.037,36.228 58.284,36.06 58.546,35.93C58.641,35.883 58.752,35.852 58.83,35.927C58.957,36.051 58.819,36.138 58.746,36.214C58.211,36.77 57.679,37.328 57.216,37.945C56.787,38.516 56.396,39.107 56.182,39.792C56.115,40.006 56.009,40.172 55.758,40.234C54.611,40.518 52.325,41.112 52.325,41.112C52.325,41.112 50.157,41.574 47.233,41.798C44.309,42.022 40.284,42.919 38.323,44.015C36.361,45.11 34.34,47.14 32.771,49.138C31.742,50.451 30.838,51.844 29.878,53.2C28.564,55.055 27.197,56.862 25.09,57.988C23.871,58.641 22.532,58.913 21.216,59.27C19.021,59.865 16.993,60.729 15.51,62.505C15.227,62.844 15.009,63.212 14.802,63.678C16.106,63.386 17.256,63.727 18.394,64.056C19.955,64.509 21.52,64.875 23.181,64.713C22.682,65.051 22.116,65.218 21.563,65.411C21.444,65.452 21.321,65.476 21.369,65.636C21.406,65.758 21.517,65.744 21.618,65.747C23.028,65.793 24.443,65.905 25.904,65.318C25.64,65.789 25.265,66.021 24.947,66.415C27.156,66.092 28.976,65.262 30.48,63.631L30.48,65.032C31.263,63.76 31.552,62.477 31.888,61.122C31.99,61.447 32.064,61.684 32.155,61.973C32.648,59.99 32.873,58.016 33.418,56.083C33.418,56.669 33.45,57.256 33.412,57.839C33.281,59.888 33.105,61.924 32.127,63.813C31.622,64.785 30.902,65.563 30.056,66.235C29.22,66.898 28.857,67.689 28.92,68.745C29.063,71.155 29.022,73.567 28.92,75.98C28.852,77.563 29.636,78.275 31.275,78.268C32.634,78.262 33.992,78.251 35.352,78.249C35.58,78.249 35.817,78.298 35.748,77.94C35.532,76.831 35.311,75.73 34.134,75.143C34.008,75.081 33.883,74.969 33.757,74.969C32.652,74.969 32.494,74.157 32.362,73.392C32.198,72.442 32.238,71.481 32.379,70.52C32.675,68.517 34.028,67.288 35.632,66.215C36.874,65.385 38.214,64.703 39.414,63.809C40.488,63.009 41.374,62.062 42.03,60.915C42.074,60.838 42.094,60.718 42.257,60.729C42.147,62.381 41.356,63.718 40.233,64.903C39.67,65.497 39.077,66.061 39.149,66.975C39.183,67.398 39.317,67.788 39.531,68.139C40.427,69.606 40.946,71.213 41.445,72.829C41.964,74.509 42.457,74.877 44.264,74.876C45.516,74.876 46.769,74.864 48.021,74.871C48.336,74.872 48.455,74.835 48.342,74.474C48.071,73.614 47.917,72.709 46.982,72.226C46.453,71.952 45.888,71.788 45.299,71.807C44.842,71.821 44.58,71.63 44.381,71.283C43.916,70.48 43.497,69.655 43.227,68.77C42.806,67.39 43.263,66.219 44.254,65.239C45.305,64.198 46.626,63.468 47.751,62.507C49.19,61.278 50.395,59.881 51.105,58.131C51.215,57.861 51.274,57.573 51.365,57.27C52.696,57.832 54.05,58.268 55.404,58.703C55.568,58.756 55.878,58.734 55.873,58.982C55.868,59.183 55.618,59.262 55.438,59.351C55.384,59.378 55.329,59.403 55.211,59.46C55.582,59.727 55.94,59.959 56.266,60.228C56.441,60.372 56.767,60.571 56.302,60.779C56.034,60.9 56.207,61.103 56.246,61.235C56.856,63.291 57.262,65.386 57.573,67.5C57.843,69.347 58.086,71.198 57.772,73.067C57.696,73.522 57.759,73.987 57.997,74.383C58.667,75.501 58.86,76.736 59.007,77.984C59.135,79.081 59.783,79.756 60.916,79.793C62.517,79.843 64.119,79.815 65.721,79.815C65.899,79.815 66.13,79.819 66.066,79.545C65.836,78.562 65.741,77.522 64.794,76.848C64.328,76.515 63.855,76.215 63.249,76.271C62.851,76.307 62.723,76.042 62.58,75.788C62.038,74.824 61.978,73.754 61.969,72.699C61.943,70.046 62.116,67.398 62.316,64.591" style="fill-rule:nonzero;"/>
        </g>
        <g transform="matrix(6.29189,0,0,6.29189,-8.64865,4)">
            <defs>
                <mask id="forbidden-mask">
                    <rect fill="white" x="0" y="0" width="100" height="100"/>
                    <circle fill="black" cx="50" cy="50" r="40"/>
                    <rect fill="white"
                        x="0" y="0" width="100" height="12"
                        transform="
                            translate(50,50)
                            rotate(45)
                            scale(1.5,1)
                            translate(-50,-6)
                        "/>
                </mask>
            </defs>
            <g mask="url(#forbidden-mask)">
                <rect x="0" y="0" width="100" height="100" style="fill:rgb(237,48,36);"/>
            </g>
        </g>
    </g>
    <g id="Text" transform="matrix(1,0,0,1,125.301,20.2973)">
        <g id="Community-Edition" serif:id="Community Edition" transform="matrix(0.135392,0,0,0.135392,695.737,189.595)">
            <path d="M-987.663,1753.13C-1010.12,1786.6 -1045.88,1801.26 -1083.01,1801.26C-1166.44,1801.26 -1217.78,1735.26 -1217.78,1659.62C-1217.78,1583.99 -1166.89,1517.98 -1083.01,1517.98C-1041.75,1517.98 -1009.21,1539.52 -995.456,1560.61L-967.952,1540.44C-990.413,1508.81 -1035.79,1489.1 -1083.47,1489.1C-1180.19,1489.1 -1252.62,1561.07 -1252.62,1659.62C-1252.62,1758.17 -1181.56,1830.14 -1083.47,1830.14C-1025.25,1830.14 -983.537,1802.18 -961.993,1769.63L-987.663,1753.13Z" style="fill:white;fill-rule:nonzero;"/>
            <path d="M-589.776,1659.62C-589.776,1561.07 -662.203,1489.1 -758.924,1489.1C-855.645,1489.1 -928.072,1561.07 -928.072,1659.62C-928.072,1758.17 -855.645,1830.14 -758.924,1830.14C-662.203,1830.14 -589.776,1758.17 -589.776,1659.62ZM-624.614,1659.62C-624.614,1735.26 -675.496,1800.81 -758.924,1800.81C-842.352,1800.81 -893.234,1735.26 -893.234,1659.62C-893.234,1583.99 -842.352,1517.98 -758.924,1517.98C-675.496,1517.98 -624.614,1583.99 -624.614,1659.62Z" style="fill:white;fill-rule:nonzero;"/>
            <path d="M-470.593,1497.35L-521.017,1497.35L-521.017,1821.89L-488.012,1821.89L-488.012,1539.98L-487.096,1539.98L-369.747,1821.89L-352.328,1821.89L-234.978,1539.98L-234.062,1539.98L-234.062,1821.89L-201.057,1821.89L-201.057,1497.35L-251.481,1497.35L-360.12,1765.97L-360.579,1765.97L-470.593,1497.35Z" style="fill:white;fill-rule:nonzero;"/>
            <path d="M-64.456,1497.35L-114.879,1497.35L-114.879,1821.89L-81.875,1821.89L-81.875,1539.98L-80.958,1539.98L36.391,1821.89L53.81,1821.89L171.159,1539.98L172.076,1539.98L172.076,1821.89L205.081,1821.89L205.081,1497.35L154.657,1497.35L46.018,1765.97L45.559,1765.97L-64.456,1497.35Z" style="fill:white;fill-rule:nonzero;"/>
            <path d="M410.9,1830.14C508.08,1830.14 532.375,1754.97 532.375,1700.88L532.375,1497.35L499.37,1497.35L499.37,1697.21C499.37,1749.47 476.909,1800.81 410.9,1800.81C344.891,1800.81 322.43,1749.47 322.43,1697.21L322.43,1497.35L289.425,1497.35L289.425,1700.88C289.425,1754.97 313.72,1830.14 410.9,1830.14Z" style="fill:white;fill-rule:nonzero;"/>
            <path d="M657.975,1497.35L616.719,1497.35L616.719,1821.89L649.724,1821.89L649.724,1542.73L650.641,1542.73L839.499,1821.89L880.755,1821.89L880.755,1497.35L847.75,1497.35L847.75,1773.76L846.834,1773.76L657.975,1497.35Z" style="fill:white;fill-rule:nonzero;"/>
            <rect x="966.933" y="1497.35" width="33.004" height="324.544" style="fill:white;"/>
            <path d="M1190.17,1526.69L1298.81,1526.69L1298.81,1497.35L1048.53,1497.35L1048.53,1526.69L1157.17,1526.69L1157.17,1821.89L1190.17,1821.89L1190.17,1526.69Z" style="fill:white;fill-rule:nonzero;"/>
            <path d="M1453.29,1682.08L1574.77,1497.35L1536.26,1497.35L1437.7,1654.58L1340.07,1497.35L1298.81,1497.35L1420.29,1682.08L1420.29,1821.89L1453.29,1821.89L1453.29,1682.08Z" style="fill:white;fill-rule:nonzero;"/>
            <path d="M1754.46,1667.41L1911.68,1667.41L1911.68,1638.53L1754.46,1638.53L1754.46,1526.69L1922.69,1526.69L1922.69,1497.35L1721.45,1497.35L1721.45,1821.89L1928.19,1821.89L1928.19,1792.56L1754.46,1792.56L1754.46,1667.41Z" style="fill:white;fill-rule:nonzero;"/>
            <path d="M1992.82,1821.89L2100.54,1821.89C2181.68,1821.89 2271.07,1767.8 2271.07,1659.62C2271.07,1551.44 2181.68,1497.35 2100.54,1497.35L1992.82,1497.35L1992.82,1821.89ZM2025.83,1526.69L2091.38,1526.69C2189.01,1526.69 2236.23,1592.69 2236.23,1659.62C2236.23,1726.55 2189.01,1792.56 2091.38,1792.56L2025.83,1792.56L2025.83,1526.69Z" style="fill:white;fill-rule:nonzero;"/>
            <rect x="2339.83" y="1497.35" width="33.004" height="324.544" style="fill:white;"/>
            <path d="M2563.06,1526.69L2671.7,1526.69L2671.7,1497.35L2421.42,1497.35L2421.42,1526.69L2530.06,1526.69L2530.06,1821.89L2563.06,1821.89L2563.06,1526.69Z" style="fill:white;fill-rule:nonzero;"/>
            <rect x="2720.29" y="1497.35" width="33.004" height="324.544" style="fill:white;"/>
            <path d="M3160.35,1659.62C3160.35,1561.07 3087.93,1489.1 2991.2,1489.1C2894.48,1489.1 2822.06,1561.07 2822.06,1659.62C2822.06,1758.17 2894.48,1830.14 2991.2,1830.14C3087.93,1830.14 3160.35,1758.17 3160.35,1659.62ZM3125.51,1659.62C3125.51,1735.26 3074.63,1800.81 2991.2,1800.81C2907.78,1800.81 2856.9,1735.26 2856.9,1659.62C2856.9,1583.99 2907.78,1517.98 2991.2,1517.98C3074.63,1517.98 3125.51,1583.99 3125.51,1659.62Z" style="fill:white;fill-rule:nonzero;"/>
            <path d="M3270.37,1497.35L3229.11,1497.35L3229.11,1821.89L3262.12,1821.89L3262.12,1542.73L3263.03,1542.73L3451.89,1821.89L3493.15,1821.89L3493.15,1497.35L3460.14,1497.35L3460.14,1773.76L3459.23,1773.76L3270.37,1497.35Z" style="fill:white;fill-rule:nonzero;"/>
        </g>
        <g id="Wolves" transform="matrix(3.40043,0,0,3.40043,-2290.15,-4260.7)">
            <path d="M831.185,1354.08L837.285,1354.08L845.585,1327.53L845.685,1327.53L853.985,1354.08L860.085,1354.08L870.435,1318.68L863.735,1318.68L856.735,1344.68L856.635,1344.68L848.985,1318.68L842.485,1318.68L834.685,1344.68L834.585,1344.68L827.735,1318.68L820.835,1318.68L831.185,1354.08Z" style="fill:white;fill-rule:nonzero;"/>
            <path d="M872.335,1336.28C872.335,1347.33 880.385,1354.98 891.285,1354.98C902.335,1354.98 910.385,1347.33 910.385,1336.28C910.385,1324.93 902.335,1317.78 891.285,1317.78C880.385,1317.78 872.335,1324.93 872.335,1336.28ZM879.185,1336.28C879.185,1328.98 884.035,1323.33 891.335,1323.33C898.685,1323.33 903.535,1328.98 903.535,1336.28C903.535,1343.83 898.585,1349.33 891.335,1349.33C884.135,1349.33 879.185,1343.83 879.185,1336.28Z" style="fill:white;fill-rule:nonzero;"/>
            <path d="M916.485,1354.08L937.835,1354.08L937.835,1348.48L922.785,1348.48L922.785,1318.68L916.485,1318.68L916.485,1354.08Z" style="fill:white;fill-rule:nonzero;"/>
            <path d="M948.935,1354.08L954.385,1354.08L968.585,1318.68L961.785,1318.68L951.935,1345.93L951.735,1345.93L941.985,1318.68L934.935,1318.68L948.935,1354.08Z" style="fill:white;fill-rule:nonzero;"/>
            <path d="M971.985,1354.08L996.335,1354.08L996.335,1348.48L978.285,1348.48L978.285,1338.48L994.535,1338.48L994.535,1333.18L978.285,1333.18L978.285,1324.18L995.435,1324.18L995.435,1318.68L971.985,1318.68L971.985,1354.08Z" style="fill:white;fill-rule:nonzero;"/>
            <path d="M1024.63,1321.58C1021.94,1319.03 1017.88,1317.78 1014.34,1317.78C1007.94,1317.78 1001.38,1320.98 1001.38,1328.18C1001.38,1334.78 1006.03,1336.88 1010.34,1338.23C1014.78,1339.63 1018.49,1340.68 1018.49,1344.38C1018.49,1348.18 1015.03,1349.63 1012.09,1349.63C1009.28,1349.63 1006.09,1348.13 1004.34,1345.73L999.835,1349.93C1002.63,1353.23 1007.38,1354.98 1011.99,1354.98C1018.94,1354.98 1024.88,1351.28 1024.88,1343.68C1024.88,1336.73 1019.09,1334.73 1014.53,1333.33C1010.53,1332.08 1007.78,1331.13 1007.78,1327.88C1007.78,1324.43 1011.13,1323.03 1014.03,1323.03C1016.53,1323.03 1019.19,1324.33 1020.53,1326.08L1024.63,1321.58Z" style="fill:white;fill-rule:nonzero;"/>
        </g>
        <g id="Better-Than" serif:id="Better Than" transform="matrix(2.35853,0,0,2.35853,-1989.88,-1212.21)">
            <path d="M1099.99,566.461C1099.99,570.611 1097.04,572.211 1094.34,572.211L1090.49,572.211L1090.49,560.811L1094.24,560.811C1097.14,560.811 1099.99,562.211 1099.99,566.461ZM1100.94,582.361C1100.94,586.711 1098.19,588.611 1094.84,588.611L1090.49,588.611L1090.49,575.761L1094.64,575.761C1097.54,575.761 1100.94,577.511 1100.94,582.361ZM1099.34,573.711C1101.84,572.761 1104.19,570.361 1104.19,565.761C1104.19,558.761 1098.79,557.011 1094.74,557.011L1086.24,557.011L1086.24,592.411L1095.79,592.411C1100.04,592.411 1105.39,589.961 1105.39,582.661C1105.39,576.961 1101.94,574.311 1099.34,573.811L1099.34,573.711Z" style="fill:white;fill-rule:nonzero;"/>
            <path d="M1126.64,592.411L1126.64,588.361L1115.59,588.361L1115.59,575.911L1125.44,575.911L1125.44,572.161L1115.59,572.161L1115.59,561.011L1126.14,561.011L1126.14,557.011L1111.24,557.011L1111.24,592.411L1126.64,592.411Z" style="fill:white;fill-rule:nonzero;"/>
            <path d="M1146.59,560.861L1146.59,557.011L1128.64,557.011L1128.64,560.861L1135.39,560.861L1135.39,592.411L1139.84,592.411L1139.84,560.861L1146.59,560.861Z" style="fill:white;fill-rule:nonzero;"/>
            <path d="M1164.54,560.861L1164.54,557.011L1146.59,557.011L1146.59,560.861L1153.34,560.861L1153.34,592.411L1157.79,592.411L1157.79,560.861L1164.54,560.861Z" style="fill:white;fill-rule:nonzero;"/>
            <path d="M1183.84,592.411L1183.84,588.361L1172.79,588.361L1172.79,575.911L1182.64,575.911L1182.64,572.161L1172.79,572.161L1172.79,561.011L1183.34,561.011L1183.34,557.011L1168.44,557.011L1168.44,592.411L1183.84,592.411Z" style="fill:white;fill-rule:nonzero;"/>
            <path d="M1209.04,592.411L1202.44,575.761C1205.14,575.161 1208.39,572.411 1208.39,566.661C1208.39,559.661 1204.04,557.011 1198.89,557.011L1189.74,557.011L1189.74,592.411L1194.14,592.411L1194.14,576.611L1198.24,576.611L1204.24,592.411L1209.04,592.411ZM1203.94,566.861C1203.94,570.861 1201.69,573.111 1198.29,573.111L1194.14,573.111L1194.14,560.811L1198.19,560.811C1201.04,560.811 1203.94,562.111 1203.94,566.861Z" style="fill:white;fill-rule:nonzero;"/>
            <path d="M1236.69,560.861L1236.69,557.011L1218.74,557.011L1218.74,560.861L1225.49,560.861L1225.49,592.411L1229.94,592.411L1229.94,560.861L1236.69,560.861Z" style="fill:white;fill-rule:nonzero;"/>
            <path d="M1261.94,592.411L1261.94,557.011L1257.44,557.011L1257.44,572.061L1245.09,572.061L1245.09,557.011L1240.59,557.011L1240.59,592.411L1245.09,592.411L1245.09,576.061L1257.44,576.061L1257.44,592.411L1261.94,592.411Z" style="fill:white;fill-rule:nonzero;"/>
            <path d="M1289.79,592.411L1281.09,557.011L1275.14,557.011L1266.24,592.411L1270.79,592.411L1272.84,584.111L1283.09,584.111L1285.09,592.411L1289.79,592.411ZM1282.49,580.561L1273.44,580.561L1277.94,561.211L1278.14,561.211L1282.49,580.561Z" style="fill:white;fill-rule:nonzero;"/>
            <path d="M1314.94,592.411L1314.94,557.011L1310.79,557.011L1310.79,584.511L1310.64,584.511L1299.49,557.011L1294.09,557.011L1294.09,592.411L1298.24,592.411L1298.24,564.961L1298.39,564.961L1309.69,592.411L1314.94,592.411Z" style="fill:white;fill-rule:nonzero;"/>
        </g>
    </g>
</svg>
